<?xml version="1.0" encoding="UTF-8"?><svg id="uuid-a8b06271-126f-47e0-af4d-e7215ab45161" xmlns="http://www.w3.org/2000/svg" viewBox="0 0 260.79 260.79"><circle cx="130.39" cy="130.39" r="127.56" style="fill:#fff; stroke-width:0px;"/><path d="M22.41,146.31v6.6h8.09c.65,0,1.19.21,1.63.62.44.41.66.94.66,1.59,0,.55-.22,1.04-.66,1.46s-.98.64-1.63.64h-8.09v8.73c0,.65-.23,1.19-.69,1.63s-1.01.66-1.63.66c-.7,0-1.27-.21-1.7-.64-.44-.42-.65-.97-.65-1.65v-21.66c0-.65.22-1.19.65-1.63s.98-.66,1.63-.66h12.18c.65,0,1.19.21,1.63.62s.66.94.66,1.59c0,.55-.22,1.04-.66,1.46-.44.43-.98.64-1.63.64h-9.78Z" style="stroke-width:0px;"/><path d="M42.75,167.58c-.47.44-1.02.66-1.65.66-.67,0-1.23-.22-1.67-.66s-.65-.98-.65-1.63v-21.66c0-.65.22-1.19.67-1.63s1.02-.66,1.72-.66c.62,0,1.16.22,1.61.66s.67.98.67,1.63v21.66c0,.65-.24,1.19-.71,1.63Z" style="stroke-width:0px;"/><path d="M52.71,167.94c-1.4-.45-2.71-1.21-3.93-2.29-.68-.6-1.01-1.26-1.01-1.99,0-.57.21-1.08.64-1.52s.94-.66,1.54-.66c.47,0,.9.15,1.27.45,1,.82,1.97,1.42,2.92,1.8.95.38,2.07.56,3.37.56,1.4,0,2.6-.31,3.62-.94s1.52-1.4,1.52-2.32c0-1.12-.5-2.01-1.5-2.64-1-.64-2.58-1.12-4.76-1.44-5.47-.8-8.2-3.35-8.2-7.65,0-1.57.41-2.94,1.24-4.1.82-1.16,1.95-2.05,3.37-2.66s3.01-.92,4.76-.92c1.57,0,3.05.24,4.44.71,1.39.48,2.54,1.1,3.46,1.87.72.58,1.09,1.24,1.09,1.99,0,.57-.21,1.08-.64,1.52-.43.44-.92.66-1.5.66-.37,0-.71-.11-1.01-.34-.65-.52-1.55-1.01-2.72-1.44-1.16-.44-2.2-.65-3.13-.65-1.57,0-2.79.29-3.65.88s-1.29,1.36-1.29,2.3c0,1.07.44,1.89,1.33,2.44s2.28,1,4.18,1.35c2.15.38,3.86.86,5.15,1.44,1.29.59,2.25,1.39,2.9,2.4.65,1.01.97,2.36.97,4.03,0,1.57-.44,2.95-1.33,4.14-.89,1.19-2.07,2.1-3.54,2.74-1.47.64-3.06.95-4.76.95-1.8,0-3.4-.22-4.8-.67Z" style="stroke-width:0px;"/><path d="M92.13,142.64c.42.43.64.98.64,1.65v21.66c0,.65-.23,1.19-.68,1.63-.45.44-1.02.66-1.72.66-.62,0-1.16-.22-1.61-.66-.45-.44-.68-.98-.68-1.63v-8.73h-11.95v8.73c0,.65-.24,1.19-.71,1.63-.47.44-1.02.66-1.65.66-.67,0-1.23-.22-1.67-.66s-.65-.98-.65-1.63v-21.66c0-.65.22-1.19.67-1.63s1.02-.66,1.72-.66c.62,0,1.16.22,1.61.66s.67.98.67,1.63v8.62h11.95v-8.62c0-.65.24-1.19.71-1.63s1.02-.66,1.65-.66c.7,0,1.26.21,1.69.64Z" style="stroke-width:0px;"/><path d="M101.4,167.71c-1.39-.6-2.73-1.54-4.03-2.81-.3-.25-.45-.55-.45-.9,0-.3.12-.57.36-.82.24-.25.51-.37.81-.37s.57.12.82.37c1.95,2.15,4.38,3.22,7.31,3.22,1.8,0,3.29-.42,4.48-1.27,1.19-.85,1.78-1.96,1.78-3.34,0-1.07-.29-1.97-.88-2.68-.59-.71-1.35-1.29-2.3-1.74-.95-.45-2.16-.91-3.63-1.39-1.6-.47-2.94-1-4.03-1.57-1.09-.57-1.97-1.34-2.64-2.31-.67-.96-1.01-2.18-1.01-3.65,0-1.32.36-2.5,1.07-3.52.71-1.02,1.71-1.83,3-2.42,1.29-.59,2.77-.88,4.44-.88,1.52,0,2.95.26,4.29.77s2.4,1.24,3.2,2.19c.38.42.56.79.56,1.09,0,.28-.13.53-.38.77-.25.24-.52.36-.82.36-.25,0-.46-.09-.64-.26-.67-.8-1.57-1.45-2.7-1.95-1.12-.5-2.3-.75-3.52-.75-1.82,0-3.31.41-4.46,1.22-1.15.81-1.72,1.92-1.72,3.32s.55,2.56,1.65,3.34c1.1.77,2.67,1.49,4.72,2.14,1.77.52,3.22,1.06,4.35,1.61s2.04,1.33,2.75,2.34,1.07,2.34,1.07,3.99c0,1.27-.37,2.43-1.1,3.47-.74,1.04-1.76,1.86-3.07,2.46-1.31.6-2.8.9-4.48.9-1.8,0-3.39-.3-4.78-.9Z" style="stroke-width:0px;"/><path d="M137.66,142.3c.21.2.32.46.32.79s-.11.58-.32.77c-.21.19-.48.28-.81.28h-7.75v22.98c0,.33-.11.59-.34.81-.23.21-.5.32-.82.32-.35,0-.63-.11-.84-.32-.21-.21-.32-.48-.32-.81v-22.98h-7.76c-.32,0-.59-.1-.81-.3-.21-.2-.32-.46-.32-.79,0-.3.11-.55.32-.75.21-.2.48-.3.81-.3h17.83c.32,0,.59.1.81.3Z" style="stroke-width:0px;"/><path d="M163.79,162.05c-1.07,2.05-2.56,3.65-4.46,4.82-1.9,1.16-4.06,1.74-6.48,1.74s-4.58-.58-6.48-1.74-3.38-2.77-4.46-4.82c-1.07-2.05-1.61-4.36-1.61-6.93s.54-4.92,1.61-6.97c1.07-2.05,2.56-3.65,4.46-4.8,1.9-1.15,4.06-1.72,6.48-1.72s4.58.58,6.48,1.72c1.9,1.15,3.38,2.75,4.46,4.8,1.07,2.05,1.61,4.37,1.61,6.97s-.54,4.88-1.61,6.93ZM161.72,149.29c-.86-1.71-2.06-3.04-3.6-3.99-1.54-.95-3.29-1.42-5.26-1.42s-3.73.48-5.26,1.42c-1.54.95-2.74,2.28-3.6,3.99-.86,1.71-1.29,3.65-1.29,5.83s.43,4.12,1.29,5.83c.86,1.71,2.06,3.04,3.6,3.99,1.54.95,3.29,1.42,5.26,1.42s3.73-.47,5.26-1.42c1.54-.95,2.73-2.28,3.6-3.99.86-1.71,1.29-3.65,1.29-5.83s-.43-4.12-1.29-5.83Z" style="stroke-width:0px;"/><path d="M190.43,167.15c0,.12-.05.29-.15.49-.1.18-.24.31-.41.41-.18.1-.36.15-.56.15-.25,0-.46-.05-.64-.15-.7-.4-1.26-1.05-1.69-1.95-.43-.9-.64-2.34-.64-4.31,0-1.75-.49-2.98-1.46-3.69-.97-.71-2.14-1.07-3.48-1.07h-8.32v10.08c0,.33-.1.59-.3.81s-.46.32-.79.32c-.35,0-.65-.11-.9-.32s-.37-.48-.37-.81v-23.99c0-.32.11-.59.32-.81s.48-.32.81-.32h10.12c1.42,0,2.7.31,3.82.92s2,1.46,2.64,2.53c.64,1.07.96,2.29.96,3.64,0,1.6-.42,3-1.26,4.22-.84,1.21-1.93,2.04-3.28,2.49,1.1.43,2,1.14,2.7,2.16s1.06,2.24,1.09,3.69c.03,1.55.13,2.64.32,3.26.19.62.49,1.06.92,1.31.37.25.56.56.56.94ZM182.08,154.97c.87-.08,1.69-.36,2.44-.86.75-.5,1.35-1.17,1.8-2.02.45-.85.67-1.82.67-2.92,0-1.42-.48-2.6-1.44-3.54-.96-.94-2.22-1.41-3.76-1.41h-8.69v10.76h8.99Z" style="stroke-width:0px;"/><path d="M197.81,167.9c-.23.23-.5.34-.82.34-.35,0-.63-.11-.84-.32-.21-.21-.32-.49-.32-.84v-23.91c0-.35.11-.63.34-.84.23-.21.51-.32.86-.32.32,0,.6.11.82.34.22.23.34.5.34.83v23.91c-.03.33-.15.6-.37.82Z" style="stroke-width:0px;"/><path d="M220.87,166.36c.21.22.32.49.32.79,0,.32-.11.59-.32.79-.21.2-.48.3-.81.3h-13.75c-.32,0-.59-.11-.81-.32-.21-.21-.32-.48-.32-.81v-23.99c0-.32.11-.59.32-.81s.48-.32.81-.32h13.75c.32,0,.59.11.81.32s.32.48.32.81-.11.59-.32.79c-.21.2-.48.3-.81.3h-12.51v9.41h10.83c.32,0,.59.11.81.32s.32.48.32.81-.11.59-.32.79c-.21.2-.48.3-.81.3h-10.83v10.19h12.51c.32,0,.59.11.81.34Z" style="stroke-width:0px;"/><path d="M228.78,167.71c-1.39-.6-2.73-1.54-4.03-2.81-.3-.25-.45-.55-.45-.9,0-.3.12-.57.36-.82.24-.25.51-.37.81-.37s.57.12.82.37c1.95,2.15,4.38,3.22,7.31,3.22,1.8,0,3.29-.42,4.48-1.27,1.19-.85,1.78-1.96,1.78-3.34,0-1.07-.29-1.97-.88-2.68s-1.35-1.29-2.3-1.74c-.95-.45-2.16-.91-3.63-1.39-1.6-.47-2.94-1-4.03-1.57-1.09-.57-1.97-1.34-2.64-2.31-.67-.96-1.01-2.18-1.01-3.65,0-1.32.36-2.5,1.07-3.52.71-1.02,1.71-1.83,3-2.42,1.29-.59,2.77-.88,4.44-.88,1.52,0,2.95.26,4.29.77s2.4,1.24,3.2,2.19c.38.42.56.79.56,1.09,0,.28-.13.53-.38.77-.25.24-.52.36-.82.36-.25,0-.46-.09-.64-.26-.67-.8-1.57-1.45-2.7-1.95-1.12-.5-2.3-.75-3.52-.75-1.82,0-3.31.41-4.46,1.22-1.15.81-1.72,1.92-1.72,3.32s.55,2.56,1.65,3.34c1.1.77,2.67,1.49,4.72,2.14,1.77.52,3.22,1.06,4.35,1.61s2.04,1.33,2.75,2.34c.71,1.01,1.07,2.34,1.07,3.99,0,1.27-.37,2.43-1.1,3.47-.74,1.04-1.76,1.86-3.07,2.46-1.31.6-2.8.9-4.48.9-1.8,0-3.39-.3-4.78-.9Z" style="stroke-width:0px;"/><path d="M240.49,105.16c-5.39.08-10.32,1-15.29,2.2v-36.21c0-1.45-1.42-2.12-2.56-1.55-14.57,7.34-29.14,14.68-43.71,22.02-1.14.57-2.28,1.15-3.41,1.72-1.57.79-1.79-1.06-3.61-2.15-7.39-4.44-15.1-8.23-23-11.54-12.98-5.42-26.78-8.67-40.74-9.09-26.9-.82-57,12.69-72.15,37.11-5.1-1.26-10.14-2.43-15.73-2.51-2.19-.03-2.19,3.55,0,3.59,9.27.13,17.19,3.24,26.15,4.92,9.26,1.74,19.08.99,28.1-1.73,10.01-3.01,20.01-4.15,30.36-2.21,8.76,1.64,16.41,4.63,25.49,4.76,8.47.12,15.92-2.37,24.03-4.43,10.54-2.69,21.58-1.3,31.83,1.89,8.47,2.64,17.67,3.3,26.41,1.98,3.78-.57,7.4-1.48,11-2.38.2-.01.39-.06.58-.14,5.29-1.32,10.55-2.58,16.27-2.66,2.19-.03,2.19-3.62,0-3.59ZM45.78,109.92c-2.13-.4-4.19-.88-6.22-1.38,9.83-15.26,25.31-25.39,42.12-30.48,6.96,6.66,8.26,17.89,6.94,27.25-4.24.38-8.44,1.18-12.47,2.39-10.01,3.01-20.01,4.15-30.36,2.21ZM184.63,107.71c-8.47-2.64-17.67-3.3-26.41-1.98-9.54,1.44-18.02,5.04-27.84,5.18-9.26.13-17.23-3.25-26.15-4.92-4-.75-8.09-1.01-12.19-.87,1.17-9.61-.15-20.81-6.55-28.11,9.61-2.44,19.53-3.27,29.01-2.5,15.73,1.28,30.99,6.88,45.15,13.98,3.58,1.79,7.07,3.78,10.54,5.81,1.55.91,4.08,3.64,6.06,2.64,1.72-.87,3.44-1.73,5.16-2.6,13.46-6.78,26.92-13.56,40.38-20.35v34.23c-1.75.45-3.53.92-5.34,1.38-10.54,2.69-21.58,1.3-31.83-1.89Z" style="stroke-width:0px;"/><path d="M65.92,90.27c-2.65,0-4.79,2.27-4.79,5.06s2.15,5.06,4.79,5.06,4.79-2.26,4.79-5.06-2.15-5.06-4.79-5.06Z" style="stroke-width:0px;"/><path d="M18.65,121.28c9.4.13,17.46,3.24,26.54,4.92,9.4,1.74,19.35.99,28.5-1.73,10.17-3.02,20.32-4.15,30.83-2.21,8.88,1.64,16.67,4.63,25.86,4.76,8.59.12,16.15-2.37,24.38-4.43,10.7-2.69,21.9-1.31,32.32,1.89,8.6,2.64,17.92,3.3,26.79,1.98,9.68-1.44,18.32-5.04,28.27-5.18,2.19-.03,2.19-3.62,0-3.59-8.62.12-16.1,2.35-24.38,4.43-10.7,2.69-21.9,1.31-32.32-1.89-8.6-2.64-17.92-3.3-26.79-1.98-9.68,1.44-18.31,5.04-28.26,5.18-9.38.13-17.5-3.25-26.55-4.92-9.4-1.74-19.35-.99-28.5,1.72-10.17,3.02-20.32,4.15-30.83,2.21-8.89-1.64-16.67-4.63-25.86-4.76-2.19-.03-2.19,3.56,0,3.59h0Z" style="stroke-width:0px;"/></svg>