<svg width="261" height="261" viewBox="0 0 261 261" fill="none" xmlns="http://www.w3.org/2000/svg">
<rect width="261" height="261" fill="#1E1E1E"/>
<path d="M130.56 258.12C201.009 258.12 258.12 201.009 258.12 130.56C258.12 60.1106 201.009 3 130.56 3C60.1106 3 3 60.1106 3 130.56C3 201.009 60.1106 258.12 130.56 258.12Z" fill="#60E0D1"/>
<path d="M65.1178 85.5728V119.927H106.898C110.255 119.927 113.044 121.02 115.316 123.155C117.588 125.289 118.725 128.047 118.725 131.431C118.725 134.294 117.588 136.844 115.316 139.031C113.044 141.217 110.255 142.362 106.898 142.362H65.1178V187.804C65.1178 191.187 63.93 193.998 61.5544 196.288C59.1788 198.578 56.3383 199.724 53.1364 199.724C49.5213 199.724 46.5776 198.63 44.3569 196.392C42.0845 194.206 41 191.343 41 187.804V75.0582C41 71.6748 42.1362 68.864 44.3569 66.5737C46.5776 64.2834 49.418 63.1382 52.7749 63.1382H115.678C119.034 63.1382 121.823 64.2313 124.096 66.3654C126.368 68.4996 127.504 71.2584 127.504 74.6418C127.504 77.5047 126.368 80.0552 124.096 82.2414C121.823 84.4797 119.034 85.5728 115.678 85.5728H65.1695H65.1178Z" fill="black"/>
<path d="M152.207 197.18C144.971 194.07 137.996 189.197 131.229 182.615C129.667 181.319 128.886 179.764 128.886 177.95C128.886 176.395 129.511 174.995 130.76 173.699C132.009 172.404 133.415 171.782 134.977 171.782C136.538 171.782 137.944 172.404 139.245 173.699C149.396 184.843 162.045 190.389 177.297 190.389C186.666 190.389 194.423 188.213 200.617 183.807C206.811 179.401 209.883 173.648 209.883 166.495C209.883 160.948 208.373 156.284 205.302 152.603C202.231 148.923 198.275 145.917 193.329 143.585C188.384 141.252 182.086 138.868 174.434 136.38C166.105 133.944 159.13 131.197 153.456 128.242C147.782 125.288 143.201 121.297 139.713 116.269C136.226 111.293 134.456 104.969 134.456 97.3498C134.456 90.5079 136.33 84.3916 140.026 79.1047C143.722 73.8178 148.927 69.6193 155.642 66.5612C162.357 63.5031 170.061 62 178.754 62C186.666 62 194.11 63.3476 201.085 65.9911C208.061 68.6345 213.579 72.4183 217.743 77.3424C219.721 79.5194 220.658 81.4372 220.658 82.9922C220.658 84.4435 219.981 85.7393 218.68 86.9833C217.378 88.2273 215.973 88.8493 214.411 88.8493C213.11 88.8493 212.017 88.3828 211.08 87.5017C207.592 83.355 202.907 79.9859 197.025 77.3943C191.195 74.8027 185.053 73.5069 178.702 73.5069C169.228 73.5069 161.472 75.632 155.486 79.8304C149.5 84.0289 146.533 89.7823 146.533 97.0389C146.533 104.295 149.396 110.308 155.122 114.351C160.848 118.342 169.02 122.074 179.691 125.443C188.905 128.138 196.453 130.937 202.335 133.788C208.217 136.639 212.954 140.682 216.65 145.917C220.346 151.152 222.22 158.046 222.22 166.598C222.22 173.181 220.294 179.194 216.494 184.584C212.642 189.975 207.332 194.225 200.513 197.335C193.694 200.445 185.938 202 177.193 202C167.823 202 159.546 200.445 152.311 197.335L152.207 197.18Z" fill="black"/>
</svg>
